<?xml version="1.0" standalone="no"?>
<!DOCTYPE svg PUBLIC "-//W3C//DTD SVG 20010904//EN"
 "http://www.w3.org/TR/2001/REC-SVG-20010904/DTD/svg10.dtd">
<svg version="1.0" xmlns="http://www.w3.org/2000/svg"
 width="300.000000pt" height="155.000000pt" viewBox="0 0 300.000000 155.000000"
 preserveAspectRatio="xMidYMid meet">
<metadata>
Created by potrace 1.10, written by Peter Selinger 2001-2011
</metadata>
<g transform="translate(0.000000,155.000000) scale(0.050000,-0.050000)"
fill="#000000" stroke="none">
<path d="M2441 3002 c-15 -36 -19 -95 -11 -155 22 -157 27 -170 70 -147 50 27
60 25 60 -10 0 -18 -19 -30 -49 -30 -60 0 -85 -33 -36 -49 19 -6 56 -43 83
-81 35 -52 54 -65 72 -50 17 14 32 11 50 -10 15 -18 41 -26 63 -19 23 7 37 2
37 -15 1 -19 5 -19 19 3 25 40 67 -62 66 -159 l-1 -70 37 71 c35 69 99 139 99
109 0 -8 28 13 62 46 84 82 62 227 -30 192 -18 -7 -32 -23 -32 -35 0 -51 -310
-114 -348 -71 -55 61 6 194 120 262 65 38 68 44 35 62 -20 11 -84 64 -141 117
-123 115 -189 127 -225 39z m109 -109 c-16 -25 -24 -52 -17 -60 8 -7 3 -13
-10 -13 -24 0 -32 84 -10 107 38 38 67 12 37 -34z"/>
<path d="M3309 2957 c-22 -24 -29 -38 -16 -30 16 9 20 0 13 -27 -6 -22 -19
-40 -30 -40 -10 0 -13 9 -6 20 7 11 -1 14 -19 8 -42 -16 -43 -14 59 -115 69
-68 87 -78 79 -45 -6 24 -2 67 9 96 42 112 -22 209 -89 133z"/>
<path d="M3061 2848 c2 -61 159 -144 159 -84 0 15 -12 20 -65 24 -14 1 -41 19
-60 40 -19 21 -35 30 -34 20z"/>
<path d="M2884 2816 c-42 -42 -26 -64 19 -24 l43 38 -35 -55 c-46 -71 -14 -71
55 1 l53 56 -55 4 c-31 2 -67 -7 -80 -20z"/>
<path d="M2974 2745 c-69 -52 -109 -106 -78 -104 25 1 173 136 162 148 -6 6
-44 -14 -84 -44z"/>
<path d="M3220 2604 c0 -20 -11 -47 -23 -59 -26 -26 -31 -23 118 -64 47 -12
85 -31 85 -42 0 -34 37 -20 50 20 20 63 -31 125 -95 116 -43 -6 -55 0 -55 28
0 24 -15 37 -40 37 -25 0 -40 -13 -40 -36z"/>
<path d="M2295 2462 c-22 -28 -21 -29 10 -5 32 25 35 22 35 -42 0 -121 132
-346 305 -522 85 -86 162 -168 170 -182 8 -14 54 -30 101 -36 96 -13 104 -3
133 153 l14 79 -51 -34 c-60 -39 -85 -43 -56 -8 15 19 -5 26 -91 30 -129 5
-162 29 -297 218 -95 131 -156 275 -141 332 5 19 3 36 -4 38 -67 13 -107 6
-128 -21z"/>
<path d="M3169 2439 c-7 -12 -34 -30 -60 -39 -26 -10 -61 -48 -79 -84 -26 -54
-27 -59 -2 -26 81 106 86 108 151 51 62 -54 45 -110 -72 -240 -106 -118 -197
-137 -197 -41 0 28 10 48 24 45 15 -3 20 8 13 26 -7 17 4 71 23 121 53 138 23
125 -38 -17 -79 -186 -100 -222 -122 -213 -11 4 -19 12 -17 18 30 93 51 265
36 299 -15 33 -20 21 -22 -61 -3 -108 -47 -193 -47 -91 0 32 -9 50 -20 43 -11
-7 -20 -32 -20 -55 0 -30 -6 -37 -21 -22 -14 14 -14 37 0 75 33 87 28 157 -7
92 -54 -101 -54 -131 -1 -210 l52 -77 -51 34 c-29 19 -52 26 -52 17 0 -34 81
-91 132 -93 29 -1 60 -18 71 -37 48 -86 205 -36 364 117 73 71 133 70 133 -2
0 -27 -7 -50 -15 -52 -44 -7 -101 -16 -149 -23 -96 -15 -118 -55 -83 -156 67
-193 -47 -632 -181 -702 -32 -17 -30 -10 11 28 73 70 91 136 46 169 -43 32
-161 36 -179 7 -7 -11 2 -20 19 -20 17 0 31 -3 31 -8 0 -29 -64 -150 -92 -174
-32 -26 -33 -24 -11 16 33 62 29 145 -9 159 -25 10 -26 16 -5 31 22 15 21 17
-3 11 -16 -5 -42 6 -56 23 -22 27 -23 26 -5 -12 22 -46 -10 -154 -40 -135 -8
5 -20 -4 -25 -19 -6 -15 -61 -48 -122 -73 -89 -37 -107 -51 -89 -73 19 -23 28
-22 55 2 18 16 64 32 102 35 58 6 76 20 107 82 40 82 73 98 73 35 0 -58 -136
-260 -176 -261 -28 -2 -27 -5 6 -19 34 -15 31 -17 -20 -18 -127 -1 -292 144
-294 257 0 49 -12 83 -29 89 -22 9 -24 21 -8 50 12 22 21 62 21 89 0 67 20
115 42 102 10 -6 18 2 18 19 0 16 7 34 15 39 9 5 12 -27 8 -72 l-8 -81 75 12
c244 40 209 355 -74 679 -78 89 -137 96 -195 22 -76 -97 -42 -16 39 93 94 126
90 113 40 126 -22 6 -36 3 -30 -6 5 -8 -4 -27 -20 -40 -17 -14 -30 -34 -30
-44 0 -11 -20 -48 -45 -82 -167 -233 -194 -324 -153 -513 22 -103 58 -120 58
-29 0 28 9 45 19 38 26 -16 49 81 30 125 -16 35 -21 52 -27 80 -2 8 -16 -2
-33 -24 -16 -21 -29 -28 -29 -16 0 13 27 54 60 92 33 38 61 85 61 106 2 34 3
34 16 2 12 -32 18 -31 83 8 49 30 61 32 42 9 -26 -31 -4 -47 25 -18 8 8 30 16
49 19 31 4 31 2 -2 -22 -34 -26 -34 -30 15 -78 28 -28 51 -42 51 -31 0 11 8
16 17 10 19 -12 12 -250 -7 -269 -42 -41 -90 -19 -91 42 -2 100 -44 198 -99
230 l-50 30 43 -38 c71 -60 115 -321 52 -303 -20 6 -164 -90 -165 -110 0 -29
57 -37 100 -14 70 37 34 -115 -44 -183 l-60 -53 45 -61 c24 -33 55 -55 69 -50
14 5 31 -6 38 -24 9 -23 4 -30 -15 -23 -23 9 -24 -3 -8 -68 21 -81 48 -100 68
-48 25 66 51 1 40 -100 -11 -90 -6 -113 32 -161 25 -31 60 -107 78 -168 21
-69 34 -92 35 -62 2 38 7 44 26 25 41 -41 82 -29 69 21 -13 52 26 108 122 173
141 97 139 191 -4 163 -11 -2 -2 16 20 40 30 35 33 47 12 54 -18 6 7 42 73
105 54 52 110 126 122 165 24 72 102 120 102 62 0 -39 -50 -134 -88 -166 -25
-20 -31 -69 -30 -235 1 -258 4 -266 95 -266 l73 0 -7 122 c-8 137 37 165 58
36 9 -51 16 -24 28 108 l16 176 92 -14 c51 -7 94 -14 96 -16 1 -1 6 -65 10
-142 6 -120 13 -142 47 -151 59 -17 105 0 116 43 7 25 28 38 61 38 28 0 56 9
63 20 7 11 34 20 61 20 27 0 49 9 49 20 0 22 123 27 195 8 34 -10 40 -20 26
-47 -11 -19 -14 -55 -7 -80 9 -36 4 -44 -24 -38 -20 4 -39 24 -42 45 -8 58
-34 72 -98 53 -57 -17 -58 -18 -10 -21 28 -2 39 -8 25 -13 -41 -17 -28 -47 20
-49 43 -2 43 -3 -5 -18 -37 -12 -18 -17 74 -18 115 -2 201 -35 101 -40 -254
-10 -575 -9 -575 3 0 8 -22 15 -50 15 -27 0 -50 -9 -50 -20 0 -11 -20 -20 -45
-20 -106 -1 -95 -35 15 -49 182 -23 708 -6 714 23 4 17 16 19 36 6 111 -69
-339 -118 -680 -74 -201 25 -233 26 -253 0 -20 -25 -26 -25 -40 0 -9 15 -54
34 -100 41 -83 13 -83 13 -69 -42 11 -40 28 -56 63 -58 27 -1 174 -13 328 -25
250 -19 872 -13 986 10 l45 9 0 434 c-1 486 -30 592 -106 385 -6 -16 -12 4
-12 46 -2 67 5 79 58 97 60 21 79 77 45 129 -21 31 -205 57 -205 29 0 -11 11
-22 25 -24 14 -1 46 -4 71 -7 55 -6 84 -30 36 -30 -19 0 -48 -13 -63 -29 -34
-33 -38 -91 -8 -91 15 0 19 -118 15 -368 -3 -203 1 -364 9 -359 8 5 16 25 17
43 2 53 56 -78 57 -139 1 -30 12 -58 26 -64 17 -7 15 -10 -5 -11 -16 -1 -46
32 -64 73 -19 41 -29 53 -22 25 23 -94 18 -110 -39 -116 -53 -6 -55 -3 -55 80
0 64 -13 100 -50 140 -38 41 -50 76 -50 145 l0 91 -160 0 c-88 0 -160 7 -160
15 0 8 72 13 160 11 150 -4 160 -2 160 37 0 37 -8 40 -74 28 -100 -19 -522
-14 -596 7 -59 16 -58 17 34 31 l94 15 -4 85 c-3 55 -12 83 -27 77 -32 -12
-48 20 -66 130 -15 89 -16 86 -19 -57 -1 -85 7 -160 20 -173 29 -29 -7 -51
-130 -76 -102 -21 -115 -34 -150 -150 -21 -69 -21 -69 -14 25 5 71 0 95 -20
95 -16 0 -28 9 -28 20 0 11 36 20 80 20 81 0 90 10 67 70 -10 27 -16 28 -29 7
-14 -22 -17 -21 -17 3 0 17 13 47 30 69 16 21 29 71 30 110 0 39 13 88 30 110
41 55 36 224 -10 326 l-39 85 44 25 c24 13 58 25 74 26 17 1 74 9 127 18 l98
16 -10 111 c-10 124 -68 195 -140 172 -28 -9 -37 -4 -31 15 11 33 56 37 95 8
23 -17 26 -14 13 19 -9 22 -18 52 -21 68 -10 64 -151 111 -182 61z m-709 -772
c0 -45 -58 -147 -84 -147 -12 0 -6 18 15 41 31 35 33 49 13 106 -36 100 -29
131 17 76 21 -26 39 -60 39 -76z m20 -821 c0 -30 -89 -106 -125 -106 -22 0
-32 9 -24 22 8 12 2 30 -13 40 -20 13 -14 18 22 18 28 0 64 9 80 20 35 23 60
25 60 6z"/>
<path d="M3780 1870 c0 -50 -9 -90 -21 -90 -12 0 -15 10 -8 22 10 16 3 16 -27
0 -61 -32 -64 -29 -64 58 0 59 -8 80 -31 80 -63 0 -109 -41 -109 -96 1 -97 11
-100 256 -78 l226 20 -41 43 c-23 24 -41 54 -41 68 0 22 -78 63 -121 63 -11 0
-19 -40 -19 -90z"/>
<path d="M1841 1920 c-14 -26 -29 -435 -16 -427 8 5 14 -12 12 -37 -1 -25 4
-61 12 -79 10 -25 2 -36 -32 -43 -43 -8 -44 -9 -4 -11 50 -3 96 -52 77 -82 -7
-12 -21 -17 -30 -11 -10 6 -35 -8 -56 -31 l-39 -41 -11 41 c-15 58 -71 51 -86
-10 -25 -99 3 -340 47 -412 27 -43 36 -78 26 -97 -17 -29 -28 -105 -23 -155 3
-35 42 -31 42 4 0 16 8 34 18 40 24 15 86 -47 71 -71 -6 -10 2 -18 18 -18 16
0 45 -6 63 -13 34 -13 26 120 -10 160 -18 20 20 153 43 153 10 0 17 14 17 31
0 17 -9 26 -19 19 -20 -11 -24 1 -54 160 -14 77 -15 78 -23 20 -4 -33 -14 -64
-21 -70 -7 -5 -27 -37 -44 -70 -40 -79 -64 -76 -82 9 -7 39 -23 73 -35 77 -44
15 -20 80 56 149 89 83 160 65 164 -41 1 -41 8 -32 27 39 14 50 33 104 41 118
10 16 8 20 -5 12 -13 -8 -28 6 -36 32 -8 25 -24 57 -36 72 -11 15 -23 37 -25
50 -2 13 -11 50 -19 83 -14 54 -12 57 16 34 18 -15 36 -47 41 -70 7 -36 9 -33
11 12 2 30 -13 79 -31 108 -22 33 -40 113 -47 214 -7 89 -15 158 -18 152z"/>
<path d="M4120 1750 c14 -16 36 -30 50 -30 14 0 31 -15 38 -33 7 -18 18 -28
23 -22 27 26 -40 115 -87 115 -41 0 -45 -5 -24 -30z"/>
<path d="M3865 1625 c-25 -4 -45 -18 -45 -31 -1 -17 -5 -16 -17 2 -12 19 -68
22 -240 12 l-223 -14 0 -127 c0 -135 5 -140 94 -104 31 13 64 21 74 19 10 -2
7 9 -6 26 -26 31 -15 72 21 72 50 0 75 -59 73 -177 -2 -167 15 -183 198 -183
l150 0 -7 149 c-6 160 3 190 43 141 39 -46 60 -36 60 30 0 64 -52 140 -96 140
-14 0 -21 8 -15 19 16 25 -9 35 -64 26z m-76 -100 c8 -41 16 -138 19 -215 l5
-140 -7 135 c-10 168 -46 179 -43 14 1 -67 -4 -127 -11 -134 -7 -6 -12 42 -12
107 -1 188 -8 201 -127 219 l-103 15 105 19 c58 10 105 26 105 37 0 55 57 8
69 -57z"/>
<path d="M2860 1560 c0 -67 109 -92 133 -30 22 57 -8 94 -55 69 -30 -16 -39
-16 -29 -1 7 12 0 22 -18 22 -21 0 -31 -19 -31 -60z"/>
<path d="M2773 1547 c-21 -21 -15 -147 7 -147 11 0 20 36 20 80 0 82 -3 90
-27 67z"/>
<path d="M2280 1322 c0 -10 32 -37 70 -59 67 -40 70 -40 70 -4 0 24 -23 45
-63 59 -76 27 -77 27 -77 4z"/>
<path d="M3435 1253 c-11 -73 35 -133 102 -133 35 0 44 8 35 32 -7 17 -12 35
-12 40 0 4 -22 8 -50 8 -65 0 -64 32 1 49 65 16 53 61 -16 62 -42 1 -53 -10
-60 -58z"/>
<path d="M2268 1257 c-14 -23 58 -97 94 -97 37 0 16 56 -31 87 -35 24 -53 26
-63 10z"/>
<path d="M1994 1127 c-22 -22 -16 -103 8 -118 29 -18 60 29 53 79 -5 41 -38
62 -61 39z"/>
<path d="M3971 1082 c-13 -22 26 -158 50 -172 11 -7 19 25 19 77 0 83 -41 140
-69 95z"/>
<path d="M2034 853 c18 -121 61 -287 64 -244 1 22 26 58 55 82 50 39 51 46 28
117 -25 76 -51 77 -64 2 -12 -64 -41 -47 -69 40 l-26 80 12 -77z"/>
<path d="M3550 800 c-22 -9 -31 -18 -20 -19 11 -1 7 -10 -10 -21 -36 -23 30
-26 80 -4 80 37 31 79 -50 44z"/>
<path d="M2153 667 c-7 -8 -13 -40 -13 -72 0 -31 -8 -53 -17 -47 -23 14 -94
-64 -75 -82 18 -19 172 -22 172 -4 0 7 20 20 45 27 l45 15 -49 14 c-35 9 -54
32 -63 79 -15 73 -25 89 -45 70z"/>
<path d="M2590 485 c-84 -16 -101 -26 -73 -43 21 -13 20 -19 -5 -29 -20 -7
-32 -1 -32 18 0 16 -9 29 -20 29 -11 0 -20 -10 -20 -21 0 -12 -9 -16 -20 -9
-11 7 -20 -1 -20 -17 0 -37 190 -55 254 -24 56 27 2 109 -64 96z"/>
<path d="M4268 392 c16 -86 -16 -111 -65 -51 -58 72 -341 25 -433 -72 -85 -91
-105 -87 -121 21 -15 99 -40 131 -58 75 -6 -20 -28 -36 -50 -36 -21 0 -34 6
-29 14 5 8 -8 24 -29 36 -47 24 -63 -5 -63 -113 0 -81 -79 -83 -141 -4 -49 64
-397 111 -439 60 -22 -27 -41 -33 -70 -21 -62 25 -110 22 -110 -8 0 -38 98
-55 238 -40 168 18 335 -7 381 -57 80 -86 468 -74 502 16 l18 49 270 -4 c303
-5 307 -4 269 87 -15 36 -26 72 -23 79 2 7 -11 19 -28 25 -26 10 -29 1 -19
-56z"/>
<path d="M1831 414 c-32 -98 -38 -106 -46 -59 -13 73 -85 25 -85 -57 0 -24
290 -15 315 11 16 16 -39 114 -71 126 -40 15 -55 -13 -29 -54 18 -30 17 -40
-6 -49 -18 -7 -29 2 -29 24 -1 58 -36 100 -49 58z"/>
<path d="M2241 314 c-1 -20 -10 -31 -21 -24 -11 7 -20 3 -20 -9 0 -11 9 -21
20 -21 36 0 21 -35 -20 -46 -32 -8 -40 0 -40 37 0 66 -36 80 -52 20 -7 -28
-21 -51 -32 -51 -11 0 -15 16 -8 35 10 29 7 29 -18 -4 -63 -81 -43 -91 180
-87 116 2 210 10 210 18 0 31 -71 138 -92 138 -44 0 -45 -26 -2 -62 l44 -37
-45 0 c-25 -1 -45 11 -45 25 0 46 -59 113 -59 68z"/>
</g>
</svg>
